<?xml version="1.0" encoding="UTF-8" standalone="no"?>
<!DOCTYPE svg PUBLIC "-//W3C//DTD SVG 1.1//EN" "http://www.w3.org/Graphics/SVG/1.1/DTD/svg11.dtd">
<svg width="100%" height="100%" viewBox="0 0 2409 2052" version="1.1" xmlns="http://www.w3.org/2000/svg" xmlns:xlink="http://www.w3.org/1999/xlink" xml:space="preserve" xmlns:serif="http://www.serif.com/" style="fill-rule:evenodd;clip-rule:evenodd;stroke-linejoin:round;stroke-miterlimit:1.41421;">
    <g transform="matrix(1,0,0,1,0,-0.05)">
        <path d="M748.8,1551L683.7,1521L683.7,1472.1L748.8,1488.3L748.8,1551Z" style="fill:rgb(249,166,130);fill-rule:nonzero;"/>
    </g>
    <g transform="matrix(1,0,0,1,0,-0.05)">
        <path d="M365.2,1197.7L209.3,1236.6C118.7,1259.2 78.1,1365.1 130.4,1442.5L240.5,1605.4L365.2,1197.7Z" style="fill:rgb(242,109,74);fill-rule:nonzero;"/>
    </g>
    <g transform="matrix(1,0,0,1,0,-0.05)">
        <path d="M769.9,1211.2L594.9,1197.6L365.2,1197.6L732.1,1605.4C750.5,1605.4 767.4,1595.3 776.3,1579.2L869.6,1408.2C920.8,1325.9 866.5,1218.7 769.9,1211.2ZM732,1605.4L693.9,1396.7C686.9,1358.4 722.1,1325.8 759.7,1335.7L732,1605.4Z" style="fill:rgb(249,166,130);fill-rule:nonzero;"/>
    </g>
    <g transform="matrix(1,0,0,1,0,-0.05)">
        <path d="M759.7,1335.7L791.5,1214.6C784.6,1212.9 777.3,1211.7 769.9,1211.1L594.9,1197.5L365.2,1197.5L211.5,1236L238.7,1359.5L240.6,1605.3L732,1605.3L693.9,1396.6C686.9,1358.4 722.1,1325.8 759.7,1335.7Z" style="fill:white;fill-rule:nonzero;"/>
    </g>
    <g transform="matrix(1,0,0,1,0,-0.05)">
        <path d="M715.2,1513.5L679.4,1494.7C629.9,1468.7 609.1,1408.7 631.8,1357.6L699.4,1205.8L594.8,1197.7L420.7,1381.4L365.1,1197.7L305.1,1212.7L283.6,1247.9C250.2,1302.6 233.4,1365.9 235.3,1430L240.4,1605.5L732,1605.5L715.2,1513.5Z" style="fill:rgb(255,211,4);fill-rule:nonzero;"/>
    </g>
    <g transform="matrix(1,0,0,1,0,-0.05)">
        <path d="M679.4,1494.7C629.9,1468.7 609.1,1408.7 631.8,1357.6L698.7,1207.4C699,1206.6 698.5,1205.7 697.7,1205.7L632.2,1200.6C631.6,1200.6 631.1,1200.9 630.9,1201.4L561.8,1399.8C555.2,1418.7 551.8,1438.6 551.8,1458.7L551.8,1605.5L730.4,1605.5C731.2,1605.5 731.8,1604.8 731.6,1604L715.2,1514.1C715.1,1513.7 714.9,1513.4 714.6,1513.2L679.4,1494.7Z" style="fill:rgb(249,169,54);fill-rule:nonzero;"/>
    </g>
    <g transform="matrix(1,0,0,1,0,-0.05)">
        <path d="M732,1605.4L657.3,1605.4L670.2,1540.8C674.1,1521.4 691.1,1507.4 711,1507.4L742,1507.4L732,1605.4Z" style="fill:rgb(249,166,130);fill-rule:nonzero;"/>
    </g>
    <g transform="matrix(1,0,0,1,0,-0.05)">
        <path d="M482.5,1429.8L622.4,1232.6L594.4,1236.8L406,1429.8L343.3,1236.8L315.2,1212.6L353,1429.8L236.3,1429.8L236.3,1472.1L650.3,1472.1L650.3,1429.8L482.5,1429.8Z" style="fill:white;fill-rule:nonzero;"/>
    </g>
    <g transform="matrix(1,0,0,1,0,-0.05)">
        <path d="M650.2,1472.1C639.1,1459.9 631.2,1445.4 626.7,1429.8L554.2,1429.8C552.6,1439.3 551.9,1449 551.9,1458.6L551.9,1472L650.2,1472L650.2,1472.1Z" style="fill:rgb(255,211,4);fill-rule:nonzero;"/>
    </g>
    <g transform="matrix(1,0,0,1,0,-0.05)">
        <path d="M828.5,2009.8L732,1605.4L240.5,1605.4L272.9,2009.8L207.6,2009.8L207.6,2047.1L350.5,2047.1L380,2028.4L380,2047.1L441.9,2047.1L494.2,1743.5L654.9,2047.1L717.1,2047.1L717.1,2028.4L746.6,2047.1L901.9,2047.1L901.9,2009.8L828.5,2009.8Z" style="fill:rgb(40,29,30);fill-rule:nonzero;"/>
    </g>
    <g transform="matrix(1,0,0,1,0,-0.05)">
        <circle cx="195.2" cy="920.7" r="126.4" style="fill:rgb(242,109,74);"/>
    </g>
    <g transform="matrix(1,0,0,1,0,-0.05)">
        <path d="M455.5,1293C324.2,1311.7 201.5,1219.6 182.8,1088.3L130.6,721.4C111.9,590.1 204,467.4 335.3,448.7L702.2,396.5C833.5,377.8 956.2,469.9 974.9,601.2C1022.3,934.3 788.6,1245.6 455.5,1293Z" style="fill:rgb(242,109,74);fill-rule:nonzero;"/>
    </g>
    <g transform="matrix(1,0,0,1,0,-0.05)">
        <path d="M603.7,841.4L147.7,841.4L182.8,1088.3C201.5,1219.6 324.2,1311.7 455.5,1293C562.6,1277.8 659.3,1235.3 739.8,1173.5L739.8,977.5C739.8,902.3 678.9,841.4 603.7,841.4Z" style="fill:rgb(249,166,130);fill-rule:nonzero;"/>
    </g>
    <g transform="matrix(1,0,0,1,0,-0.05)">
        <path d="M128.4,696.6L128.4,697.4C128.4,697.1 128.4,696.9 128.4,696.6Z" style="fill:rgb(242,109,74);fill-rule:nonzero;"/>
    </g>
    <g transform="matrix(1,0,0,1,0,-0.05)">
        <path d="M128.2,690.2C128.2,691.5 128.3,692.7 128.3,694C128.3,692.7 128.2,691.4 128.2,690.2Z" style="fill:rgb(242,109,74);fill-rule:nonzero;"/>
    </g>
    <g transform="matrix(1,0,0,1,0,-0.05)">
        <path d="M573,1056.3C544.8,1056.3 521.9,1033.4 521.9,1005.2L521.9,902.9C521.9,874.7 544.8,851.8 573,851.8C601.2,851.8 624.1,874.7 624.1,902.9L624.1,1005.2C624.1,1033.4 601.2,1056.3 573,1056.3Z" style="fill:rgb(40,29,30);fill-rule:nonzero;"/>
        <path d="M343.6,1056.3C315.4,1056.3 292.5,1033.4 292.5,1005.2L292.5,902.9C292.5,874.7 315.4,851.8 343.6,851.8C371.8,851.8 394.7,874.7 394.7,902.9L394.7,1005.2C394.7,1033.4 371.8,1056.3 343.6,1056.3Z" style="fill:rgb(40,29,30);fill-rule:nonzero;"/>
        <path d="M455,1165.7C492.2,1165.7 522.4,1135.5 522.4,1098.3L387.6,1098.3C387.6,1135.6 417.8,1165.7 455,1165.7Z" style="fill:rgb(40,29,30);fill-rule:nonzero;"/>
    </g>
    <g transform="matrix(1,0,0,1,0,-0.05)">
        <path d="M1043.2,947C1042.1,935.8 1040.8,925.8 1029.6,927.1C1014.8,928.8 999.9,933.7 995.7,950.7C992.6,963.6 1000.4,971.6 1012.6,971.7C1029.9,971.8 1038.7,960.2 1043.2,947Z" style="fill:rgb(220,94,123);fill-rule:nonzero;"/>
    </g>
    <g transform="matrix(1,0,0,1,0,-0.05)">
        <path d="M978.6,794L1001.4,689.3L100.5,689.3L132.2,759L301.4,759C321.3,759 339.7,769.5 349.9,786.7C360,803.8 378.5,814.4 398.4,814.4L751.7,814.4C788,814.4 821.4,834 839.1,865.7L978.6,794Z" style="fill:rgb(40,29,30);fill-rule:nonzero;"/>
    </g>
    <g transform="matrix(1,0,0,1,0,-0.05)">
        <circle cx="957.5" cy="920.7" r="126.4" style="fill:rgb(242,109,74);"/>
    </g>
    <g transform="matrix(1,0,0,1,0,-0.05)">
        <path d="M991.8,899.2C1003.3,899.2 1014.1,902.5 1023.2,908.2C1023.4,905.4 1023.5,902.6 1023.5,899.8C1023.5,892 1022.7,884.5 1021.1,877.1C1018.5,864.6 1010.7,853.8 999.6,847.5C999.5,847.4 999.4,847.4 999.3,847.3C987.9,840.8 974.1,839.7 961.9,844.4C933.7,855.2 913.6,882.6 913.6,914.6C913.6,933.6 920.7,950.9 932.3,964.2C932.2,962.5 932.1,960.8 932.1,959C932.1,925.9 958.8,899.2 991.8,899.2Z" style="fill:rgb(7,7,8);fill-rule:nonzero;"/>
    </g>
    <g transform="matrix(1,0,0,1,0,-0.05)">
        <circle cx="1017" cy="949.8" r="21.9" style="fill:rgb(246,145,109);"/>
    </g>
    <g transform="matrix(1,0,0,1,0,-0.05)">
        <path d="M1068.5,674.8C1068.5,650 1051.8,628.7 1029.5,619C1032.5,597 1034.2,574.5 1034.2,551.7C1034.2,338.3 899.2,156.4 710,86.7C690.8,79.6 675.6,64.7 668,45.7C657,18.1 630.3,0 600.7,0L476.5,0C446.8,0 420.2,18.1 409.1,45.6C401.5,64.6 386.3,79.5 367.1,86.6C178,156.3 43,338.2 43,551.6C43,574.3 44.6,596.5 47.6,618.4C28.9,626.5 15,643.6 11.4,664.3C6.6,674 9.4,687.2 21.9,692.3C108.4,727.1 968.7,727.1 1055.2,692.3C1063.5,688.9 1067.6,681.9 1067.9,674.8L1068.5,674.8Z" style="fill:rgb(255,211,4);fill-rule:nonzero;"/>
    </g>
    <g transform="matrix(1,0,0,1,0,-0.05)">
        <path d="M430.3,228.6L323.5,401.4L430.3,463.3L537,401.4L430.3,228.6Z" style="fill:rgb(40,29,30);fill-rule:nonzero;"/>
    </g>
    <g transform="matrix(1,0,0,1,0,-0.05)">
        <path d="M430.3,506.3L323.5,440.5L430.3,591.7L537,440.5L430.3,506.3Z" style="fill:rgb(40,29,30);fill-rule:nonzero;"/>
    </g>
    <g transform="matrix(1,0,0,1,0,-0.05)">
        <path d="M1068,674.8L1068.5,674.8C1068.5,650 1051.8,628.7 1029.5,619C1032.5,597 1034.2,574.5 1034.2,551.7C1034.2,338.3 899.2,156.4 710,86.7C693.2,80.5 679.5,68.3 671.2,52.7L722.8,164C782.1,292.2 809.8,432.8 803.6,574L797.4,714.6L886,711C971.8,706.7 1035,700.4 1055.3,692.2C1063.6,688.9 1067.6,681.9 1068,674.8Z" style="fill:rgb(249,169,54);fill-rule:nonzero;"/>
    </g>
    <g transform="matrix(1,0,0,1,0,-0.05)">
        <path d="M734.8,142.8C793.3,173.8 817.6,226.9 832.8,286C838,306.2 847.7,322.9 871.2,317.3C896.1,311.3 892.9,291 888.5,271.6C871,194.2 810.9,140.9 734.8,142.8Z" style="fill:rgb(255,211,4);fill-rule:nonzero;"/>
    </g>
    <g transform="matrix(1,0,0,1,1316,0)">
        <path d="M858.5,1426.5L249,1426.5C163.6,1426.5 94.4,1357.3 94.4,1271.9L94.4,712.5L858.5,712.5L858.5,1426.5Z" style="fill:rgb(40,29,30);fill-rule:nonzero;"/>
    </g>
    <g transform="matrix(1,0,0,1,1316,0)">
        <path d="M345.9,1547.7L411.1,1517.7L411.1,1468.8L345.9,1485L345.9,1547.7Z" style="fill:rgb(249,166,130);fill-rule:nonzero;"/>
    </g>
    <g transform="matrix(1,0,0,1,1316,0)">
        <path d="M854.2,1602.1L964.3,1439.2C1016.6,1361.8 976,1255.9 885.4,1233.3L729.5,1194.4L854.2,1602.1Z" style="fill:rgb(242,109,74);fill-rule:nonzero;"/>
    </g>
    <g transform="matrix(1,0,0,1,1316,0)">
        <path d="M225.1,1404.9L318.4,1575.9C327.2,1592.1 344.2,1602.1 362.6,1602.1L729.5,1194.3L499.9,1194.3L324.9,1207.9C228.3,1215.4 174,1322.6 225.1,1404.9ZM335.1,1332.4C372.7,1322.5 407.9,1355.1 400.9,1393.4L362.8,1602.1L335.1,1332.4Z" style="fill:rgb(249,166,130);fill-rule:nonzero;"/>
    </g>
    <g transform="matrix(1,0,0,1,1316,0)">
        <path d="M335.1,1332.4L303.3,1211.3C310.2,1209.6 317.5,1208.4 324.9,1207.8L499.9,1194.2L729.6,1194.2L883.3,1232.6L856.1,1356.1L854.2,1601.9L362.8,1601.9L400.9,1393.2C407.9,1355.1 372.7,1322.5 335.1,1332.4Z" style="fill:white;fill-rule:nonzero;"/>
    </g>
    <g transform="matrix(1,0,0,1,1316,0)">
        <path d="M379.6,1510.1L415.4,1491.3C464.9,1465.3 485.7,1405.3 463,1354.2L395.4,1202.4L500,1194.3L673.9,1378L729.5,1194.3L789.5,1209.3L811,1244.5C844.4,1299.2 861.2,1362.5 859.3,1426.6L854.2,1602.1L362.8,1602.1L379.6,1510.1Z" style="fill:rgb(255,211,4);fill-rule:nonzero;"/>
    </g>
    <g transform="matrix(1,0,0,1,1316,0)">
        <path d="M415.4,1491.4C464.9,1465.4 485.7,1405.4 463,1354.3L396,1204.1C395.7,1203.3 396.2,1202.4 397,1202.4L462.5,1197.3C463.1,1197.3 463.6,1197.6 463.8,1198.1L532.9,1396.5C539.5,1415.4 542.9,1435.3 542.9,1455.4L542.9,1602.2L364.3,1602.2C363.5,1602.2 362.9,1601.5 363.1,1600.7L379.5,1510.8C379.6,1510.4 379.8,1510.1 380.1,1509.9L415.4,1491.4Z" style="fill:rgb(249,169,54);fill-rule:nonzero;"/>
    </g>
    <g transform="matrix(1,0,0,1,1316,0)">
        <path d="M362.8,1602.1L437.5,1602.1L424.6,1537.5C420.7,1518.1 403.7,1504.1 383.8,1504.1L352.6,1504.1L362.8,1602.1Z" style="fill:rgb(249,166,130);fill-rule:nonzero;"/>
    </g>
    <g transform="matrix(1,0,0,1,1316,0)">
        <path d="M612.3,1426.5L472.3,1229.3L500.4,1233.4L688.7,1426.5L751.5,1233.4L779.5,1209.3L741.7,1426.5L858.5,1426.5L858.5,1468.8L444.5,1468.8L444.5,1426.5L612.3,1426.5Z" style="fill:white;fill-rule:nonzero;"/>
    </g>
    <g transform="matrix(1,0,0,1,1316,0)">
        <path d="M444.5,1468.8C455.6,1456.6 463.5,1442.1 468,1426.5L540.5,1426.5C542.1,1436 542.8,1445.7 542.8,1455.3L542.8,1468.7L444.5,1468.7L444.5,1468.8Z" style="fill:rgb(255,211,4);fill-rule:nonzero;"/>
    </g>
    <g transform="matrix(1,0,0,1,1316,0)">
        <path d="M266.3,2006.5L362.8,1602.1L854.2,1602.1L821.8,2006.5L887.1,2006.5L887.1,2043.8L744.2,2043.8L714.7,2025.1L714.7,2043.8L652.8,2043.8L600.5,1740.2L439.9,2043.8L377.6,2043.8L377.6,2025.1L348.2,2043.8L192.9,2043.8L192.9,2006.5L266.3,2006.5Z" style="fill:rgb(40,29,30);fill-rule:nonzero;"/>
    </g>
    <g transform="matrix(1,0,0,1,1316,0)">
        <circle cx="899.6" cy="917.3" r="126.4" style="fill:rgb(242,109,74);"/>
    </g>
    <g transform="matrix(1,0,0,1,1316,0)">
        <path d="M639.3,1289.7C770.6,1308.4 893.3,1216.3 912,1085L964.2,718.1C982.9,586.8 890.8,464.1 759.5,445.4L392.6,393.2C261.3,374.5 138.6,466.6 119.9,597.9C72.5,931 306.2,1242.3 639.3,1289.7Z" style="fill:rgb(242,109,74);fill-rule:nonzero;"/>
    </g>
    <g transform="matrix(1,0,0,1,1316,0)">
        <path d="M491,838.1L947,838.1L911.9,1085C893.2,1216.3 770.5,1308.4 639.2,1289.7C532.1,1274.5 435.4,1232 354.9,1170.2L354.9,974.2C354.9,899 415.9,838.1 491,838.1Z" style="fill:rgb(249,166,130);fill-rule:nonzero;"/>
    </g>
    <g transform="matrix(1,0,0,1,1316,0)">
        <path d="M966.4,693.3L966.4,694.1C966.4,693.8 966.4,693.6 966.4,693.3Z" style="fill:rgb(242,109,74);fill-rule:nonzero;"/>
    </g>
    <g transform="matrix(1,0,0,1,1316,0)">
        <path d="M966.5,686.8C966.5,688.1 966.4,689.3 966.4,690.6C966.5,689.4 966.5,688.1 966.5,686.8Z" style="fill:rgb(242,109,74);fill-rule:nonzero;"/>
    </g>
    <g transform="matrix(1,0,0,1,1316,0)">
        <path d="M521.8,1053C550,1053 572.9,1030.1 572.9,1001.9L572.9,899.6C572.9,871.4 550,848.5 521.8,848.5C493.6,848.5 470.7,871.4 470.7,899.6L470.7,1001.9C470.6,1030.1 493.5,1053 521.8,1053Z" style="fill:rgb(40,29,30);fill-rule:nonzero;"/>
        <path d="M751.2,1053C779.4,1053 802.3,1030.1 802.3,1001.9L802.3,899.6C802.3,871.4 779.4,848.5 751.2,848.5C723,848.5 700.1,871.4 700.1,899.6L700.1,1001.9C700,1030.1 722.9,1053 751.2,1053Z" style="fill:rgb(40,29,30);fill-rule:nonzero;"/>
        <path d="M639.8,1162.4C602.6,1162.4 572.4,1132.2 572.4,1095L707.2,1095C707.2,1132.2 677,1162.4 639.8,1162.4Z" style="fill:rgb(40,29,30);fill-rule:nonzero;"/>
    </g>
    <g transform="matrix(1,0,0,1,1316,0)">
        <path d="M51.6,943.7C52.7,932.5 54,922.5 65.2,923.8C80,925.5 94.9,930.4 99.1,947.4C102.2,960.3 94.4,968.3 82.2,968.4C64.9,968.5 56,956.8 51.6,943.7Z" style="fill:rgb(220,94,123);fill-rule:nonzero;"/>
    </g>
    <g transform="matrix(1,0,0,1,1316,0)">
        <path d="M116.2,790.6L93.3,685.9L994.2,685.9L962.5,755.6L793.3,755.6C773.4,755.6 755,766.1 744.8,783.3C734.7,800.4 716.2,811 696.3,811L343.1,811C306.8,811 273.4,830.6 255.7,862.3L116.2,790.6Z" style="fill:rgb(40,29,30);fill-rule:nonzero;"/>
    </g>
    <g transform="matrix(1,0,0,1,1316,0)">
        <circle cx="137.2" cy="917.3" r="126.4" style="fill:rgb(242,109,74);"/>
    </g>
    <g transform="matrix(1,0,0,1,1316,0)">
        <path d="M103,895.8C91.5,895.8 80.7,899.1 71.6,904.8C71.4,902 71.3,899.2 71.3,896.4C71.3,888.6 72.1,881.1 73.7,873.7C76.3,861.2 84.1,850.4 95.2,844.1C95.3,844 95.4,844 95.5,843.9C106.9,837.4 120.7,836.3 132.9,841C161.1,851.8 181.2,879.2 181.2,911.2C181.2,930.2 174.1,947.5 162.5,960.8C162.6,959.1 162.7,957.4 162.7,955.6C162.7,922.6 136,895.8 103,895.8Z" style="fill:rgb(7,7,8);fill-rule:nonzero;"/>
    </g>
    <g transform="matrix(1,0,0,1,1316,0)">
        <circle cx="77.8" cy="946.5" r="21.9" style="fill:rgb(246,145,109);"/>
    </g>
    <g transform="matrix(1,0,0,1,1316,0)">
        <path d="M251,862.2L602.8,862.2C658.4,862.2 710.5,835.1 742.3,789.5L842.3,646.5L251,646.5L251,862.2Z" style="fill:rgb(40,29,30);fill-rule:nonzero;"/>
    </g>
    <g transform="matrix(1,0,0,1,1316,0)">
        <path d="M26.3,671.5C26.3,646.7 43,625.4 65.3,615.7C62.3,593.7 60.6,571.2 60.6,548.4C60.6,335 195.6,153.1 384.8,83.4C404,76.3 419.2,61.4 426.8,42.4C437.8,14.9 464.5,-3.2 494.2,-3.2L618.3,-3.2C648,-3.2 674.6,14.9 685.7,42.4C693.3,61.4 708.5,76.3 727.7,83.4C916.9,153.2 1051.9,335 1051.9,548.4C1051.9,571.1 1050.3,593.3 1047.3,615.2C1066,623.3 1079.9,640.4 1083.5,661.1C1088.3,670.8 1085.5,684 1073,689.1C986.5,723.9 126.2,723.9 39.7,689.1C31.4,685.7 27.3,678.7 27,671.6L26.3,671.6L26.3,671.5Z" style="fill:rgb(255,211,4);fill-rule:nonzero;"/>
    </g>
    <g transform="matrix(1,0,0,1,1316,0)">
        <path d="M664.5,225.2L771.2,398.1L664.5,459.9L557.8,398.1L664.5,225.2Z" style="fill:rgb(40,29,30);fill-rule:nonzero;"/>
    </g>
    <g transform="matrix(1,0,0,1,1316,0)">
        <path d="M664.5,503L771.2,437.2L664.5,588.4L557.8,437.2L664.5,503Z" style="fill:rgb(40,29,30);fill-rule:nonzero;"/>
    </g>
    <g transform="matrix(1,0,0,1,1316,0)">
        <path d="M26.8,671.5L26.3,671.5C26.3,646.7 43,625.4 65.3,615.7C62.3,593.7 60.6,571.2 60.6,548.4C60.6,335 195.6,153.1 384.8,83.4C401.6,77.2 415.3,65 423.6,49.4L372,160.9C312.7,289.1 285,429.7 291.2,570.9L297.4,711.5L208.9,707.9C123.1,703.6 59.9,697.3 39.6,689.1C31.2,685.6 27.1,678.6 26.8,671.5Z" style="fill:rgb(249,169,54);fill-rule:nonzero;"/>
    </g>
    <g transform="matrix(1,0,0,1,1316,0)">
        <path d="M360,139.5C301.5,170.5 277.2,223.6 262,282.7C256.8,302.9 247.1,319.6 223.6,314C198.7,308 201.9,287.7 206.3,268.3C223.8,190.9 283.9,137.6 360,139.5Z" style="fill:rgb(255,211,4);fill-rule:nonzero;"/>
    </g>
    <g transform="matrix(1,0,0,1,1316,0)">
        <path d="M747.7,899.1L800.6,899.1C819.6,899.1 835.1,883.7 835.1,864.6L835.1,848.4L747.7,848.4L747.7,899.1Z" style="fill:rgb(40,29,30);fill-rule:nonzero;"/>
    </g>
    <g transform="matrix(1,0,0,1,1316,0)">
        <path d="M525.1,899.1L472.2,899.1C453.2,899.1 437.7,883.7 437.7,864.6L437.7,848.4L525.1,848.4L525.1,899.1Z" style="fill:rgb(40,29,30);fill-rule:nonzero;"/>
    </g>
</svg>
