<svg xmlns="http://www.w3.org/2000/svg" xmlns:xlink="http://www.w3.org/1999/xlink" viewBox="0 0 563.85 155.61">
  <defs>
    <linearGradient id="Degradado_sin_nombre_19" data-name="Degradado sin nombre 19" x1="-590.59" y1="58.05" x2="-523.51" y2="58.05" gradientTransform="translate(635.92)" gradientUnits="userSpaceOnUse">
      <stop offset="0" stop-color="#923967"/>
      <stop offset="0.15" stop-color="#9b4568"/>
      <stop offset="0.41" stop-color="#b4656c"/>
      <stop offset="0.76" stop-color="#db9872"/>
      <stop offset="1" stop-color="#f9c077"/>
    </linearGradient>
    <linearGradient id="Degradado_sin_nombre_7" data-name="Degradado sin nombre 7" x1="-593.83" y1="53.55" x2="-548.51" y2="129.76" gradientTransform="translate(635.92)" gradientUnits="userSpaceOnUse">
      <stop offset="0" stop-color="#923967"/>
      <stop offset="1" stop-color="#191f54"/>
    </linearGradient>
    <linearGradient id="linear-gradient" x1="82.06" y1="110.1" x2="119.88" y2="72.28" gradientUnits="userSpaceOnUse">
      <stop offset="0" stop-color="#2e99e6"/>
      <stop offset="0.14" stop-color="#2e96e2"/>
      <stop offset="0.28" stop-color="#2d8cd5"/>
      <stop offset="0.43" stop-color="#2c7dc1"/>
      <stop offset="0.57" stop-color="#2b66a4"/>
      <stop offset="0.72" stop-color="#2a4a7f"/>
      <stop offset="0.85" stop-color="#282c57"/>
    </linearGradient>
    <linearGradient id="linear-gradient-2" x1="112.4" y1="64.81" x2="112.41" y2="64.79" gradientUnits="userSpaceOnUse">
      <stop offset="0" stop-color="#4e85bc"/>
      <stop offset="0.27" stop-color="#4d83b9"/>
      <stop offset="0.44" stop-color="#4a7bb1"/>
      <stop offset="0.58" stop-color="#456fa3"/>
      <stop offset="0.7" stop-color="#3d5d8f"/>
      <stop offset="0.81" stop-color="#334675"/>
      <stop offset="0.9" stop-color="#282c57"/>
    </linearGradient>
    <linearGradient id="Degradado_sin_nombre_16" data-name="Degradado sin nombre 16" x1="45.37" y1="58.05" x2="112.38" y2="58.05" gradientUnits="userSpaceOnUse">
      <stop offset="0" stop-color="#9c5c7d"/>
      <stop offset="0.18" stop-color="#a7687f"/>
      <stop offset="0.5" stop-color="#c38885"/>
      <stop offset="0.93" stop-color="#f0bb8d"/>
      <stop offset="1" stop-color="#f8c58f"/>
    </linearGradient>
    <linearGradient id="Degradado_sin_nombre_14" data-name="Degradado sin nombre 14" x1="62.08" y1="116.15" x2="62.08" y2="58.07" gradientUnits="userSpaceOnUse">
      <stop offset="0" stop-color="#2d4570"/>
      <stop offset="1" stop-color="#9c5c7d"/>
    </linearGradient>
  </defs>
  <title>nomic-color-horizontal</title>
  <g id="logo">
    <g>
      <g>
        <path d="M377.56,56.57h5V90.15h17.83v4.22H377.56Z" fill="#282c57"/>
        <path d="M427.91,56.57h-3.28L408.38,94.38h4.91l3.26-7.6.12-.28,2.87-6.8h0l1.2-2.82.4-.95,5-11.8L431,75.47h0l4.82,11.31h-.05l3.26,7.6h5.16Z" fill="#282c57"/>
        <path d="M455.72,56.57H468.2c7.69,0,11,4.47,11,9.89a10,10,0,0,1-4,7.43,10.28,10.28,0,0,1,6,9.39c0,6.11-3.72,11.09-12.35,11.09H455.72ZM468.2,72.19c4.72,0,6.17-2.83,6.17-5.73s-1.45-5.67-6.17-5.67h-7.44v11.4Zm.63,18c5.67,0,7.37-3.4,7.37-6.87s-1.7-6.86-7.37-6.86h-8.07V90.15Z" fill="#282c57"/>
        <path d="M493.1,90.59l1.14-4.66a15.4,15.4,0,0,0,11.46,5.16c4.48,0,7.94-2.51,7.94-6.61,0-3.84-1.89-6-8.94-7.88s-10.53-5.73-10.53-11,4.42-9.83,12.16-9.83a17,17,0,0,1,10.27,3.46l-1.13,4a16.93,16.93,0,0,0-9.14-3.34c-4.72,0-7.43,2.21-7.43,5.74,0,2.71,1.7,5,7.62,6.55,8.13,2.14,11.85,5.67,11.85,11.91,0,7.37-6.18,11.15-12.67,11.15C499.53,95.19,495.18,92.73,493.1,90.59Z" fill="#282c57"/>
      </g>
      <g>
        <polygon points="140.44 94.77 146.46 94.77 146.46 62.13 162.43 62.13 162.43 94.77 168.45 94.77 168.45 56.12 140.44 56.12 140.44 94.77" fill="#282c57"/>
        <path d="M200.68,55.34a20.13,20.13,0,1,0,20.14,20.13A20.15,20.15,0,0,0,200.68,55.34Zm14.24,20.13a14.24,14.24,0,1,1-14.24-14.24A14.26,14.26,0,0,1,214.92,75.47Z" fill="#282c57"/>
        <polygon points="233.72 94.8 239.74 94.8 239.74 62.16 253.45 62.16 253.45 94.8 259.47 94.8 259.47 62.16 273.18 62.16 273.18 94.8 279.2 94.8 279.2 56.15 233.72 56.15 233.72 94.8" fill="#282c57"/>
        <path d="M346.06,84.81a14.08,14.08,0,1,1,.05-18.62l.43.5,4.9-3.26-.53-.64a19.93,19.93,0,1,0-.06,25.43l.53-.64-4.89-3.26Z" fill="#282c57"/>
        <rect x="296.56" y="56.15" width="6.02" height="38.65" fill="#282c57"/>
      </g>
      <g>
        <polygon points="78.84 38.67 45.33 58.07 78.84 77.43 112.41 58.08 78.84 38.67" fill="url(#Degradado_sin_nombre_19)"/>
        <polygon points="45.33 58.07 45.27 96.83 78.84 116.2 78.84 77.43 45.33 58.07" fill="url(#Degradado_sin_nombre_7)"/>
        <g>
          <polygon points="107.36 93.92 84.75 106.97 84.75 112.79 112.41 96.83 112.41 64.81 107.36 67.72 107.36 93.92" fill="url(#linear-gradient)"/>
          <polygon points="112.39 64.8 112.41 64.81 112.41 64.79 112.39 64.8" fill="url(#linear-gradient-2)"/>
        </g>
        <polygon points="78.85 38.69 45.38 58.07 78.85 77.42 112.38 58.08 78.85 38.69" fill="url(#Degradado_sin_nombre_16)"/>
        <polygon points="45.38 58.07 45.32 96.79 78.85 116.15 78.85 77.42 45.38 58.07" fill="url(#Degradado_sin_nombre_14)"/>
      </g>
    </g>
  </g>
</svg>
